<?xml version="1.0" encoding="UTF-8"?>
<!DOCTYPE svg PUBLIC "-//W3C//DTD SVG 1.1//EN" "http://www.w3.org/Graphics/SVG/1.1/DTD/svg11.dtd">
<svg xmlns="http://www.w3.org/2000/svg" version="1.1" width="420px" height="420px" style="shape-rendering:geometricPrecision; text-rendering:geometricPrecision; image-rendering:optimizeQuality; fill-rule:evenodd; clip-rule:evenodd" xmlns:xlink="http://www.w3.org/1999/xlink">
<g><path style="opacity:1" fill="#eff0ef" d="M -0.5,-0.5 C 139.5,-0.5 279.5,-0.5 419.5,-0.5C 419.5,139.5 419.5,279.5 419.5,419.5C 279.5,419.5 139.5,419.5 -0.5,419.5C -0.5,279.5 -0.5,139.5 -0.5,-0.5 Z"/></g>
<g><path style="opacity:1" fill="#bddd84" d="M 34.5,34.5 C 58.1667,34.5 81.8333,34.5 105.5,34.5C 105.5,57.8333 105.5,81.1667 105.5,104.5C 128.5,104.5 151.5,104.5 174.5,104.5C 174.5,81.1667 174.5,57.8333 174.5,34.5C 198.167,34.5 221.833,34.5 245.5,34.5C 245.5,57.8333 245.5,81.1667 245.5,104.5C 268.5,104.5 291.5,104.5 314.5,104.5C 314.5,81.1667 314.5,57.8333 314.5,34.5C 338.167,34.5 361.833,34.5 385.5,34.5C 385.5,128.167 385.5,221.833 385.5,315.5C 338.5,315.5 291.5,315.5 244.5,315.5C 244.5,291.833 244.5,268.167 244.5,244.5C 267.833,244.5 291.167,244.5 314.5,244.5C 314.5,221.5 314.5,198.5 314.5,175.5C 244.833,175.5 175.167,175.5 105.5,175.5C 105.5,198.5 105.5,221.5 105.5,244.5C 128.833,244.5 152.167,244.5 175.5,244.5C 175.5,268.167 175.5,291.833 175.5,315.5C 128.5,315.5 81.5,315.5 34.5,315.5C 34.5,221.833 34.5,128.167 34.5,34.5 Z"/></g>
</svg>
