<?xml version="1.0" encoding="UTF-8"?>
<svg version="1.1" xmlns="http://www.w3.org/2000/svg" width="420" height="420">
<path d="M0 0 C138.6 0 277.2 0 420 0 C420 138.6 420 277.2 420 420 C281.4 420 142.8 420 0 420 C0 281.4 0 142.8 0 0 Z " fill="#F0F0F0" transform="translate(0,0)"/>
<path d="M0 0 C23.43 0 46.86 0 71 0 C71 23.1 71 46.2 71 70 C93.77 70 116.54 70 140 70 C140 46.9 140 23.8 140 0 C163.43 0 186.86 0 211 0 C211 23.1 211 46.2 211 70 C233.77 70 256.54 70 280 70 C280 46.9 280 23.8 280 0 C303.43 0 326.86 0 351 0 C351 92.73 351 185.46 351 281 C304.47 281 257.94 281 210 281 C210 257.57 210 234.14 210 210 C233.1 210 256.2 210 280 210 C280 187.23 280 164.46 280 141 C211.03 141 142.06 141 71 141 C71 163.77 71 186.54 71 210 C94.1 210 117.2 210 141 210 C141 233.43 141 256.86 141 281 C94.47 281 47.94 281 0 281 C0 188.27 0 95.54 0 0 Z " fill="#BEDD85" transform="translate(35,35)"/>
</svg>
