<?xml version="1.0" encoding="UTF-8"?>
<!DOCTYPE svg PUBLIC "-//W3C//DTD SVG 1.1//EN" "http://www.w3.org/Graphics/SVG/1.1/DTD/svg11.dtd">
<svg xmlns="http://www.w3.org/2000/svg" version="1.1" width="248px" height="248px" style="shape-rendering:geometricPrecision; text-rendering:geometricPrecision; image-rendering:optimizeQuality; fill-rule:evenodd; clip-rule:evenodd" xmlns:xlink="http://www.w3.org/1999/xlink">
<g><path style="opacity:1" fill="#fefefe" d="M -0.5,-0.5 C 82.1667,-0.5 164.833,-0.5 247.5,-0.5C 247.5,82.1667 247.5,164.833 247.5,247.5C 164.833,247.5 82.1667,247.5 -0.5,247.5C -0.5,164.833 -0.5,82.1667 -0.5,-0.5 Z"/></g>
<g><path style="opacity:1" fill="#121212" d="M 176.5,67.5 C 187.5,67.5 198.5,67.5 209.5,67.5C 209.5,73.1667 209.5,78.8333 209.5,84.5C 198.495,84.3335 187.495,84.5002 176.5,85C 158.566,90.0989 148.899,101.932 147.5,120.5C 148.246,139.854 157.913,152.021 176.5,157C 187.495,157.5 198.495,157.667 209.5,157.5C 209.5,163.167 209.5,168.833 209.5,174.5C 197.829,174.667 186.162,174.5 174.5,174C 141.773,166.594 126.606,146.094 129,112.5C 131.68,95.9526 140.18,83.4526 154.5,75C 161.578,71.3637 168.911,68.8637 176.5,67.5 Z"/></g>
<g><path style="opacity:1" fill="#121212" d="M 55.5,116.5 C 54.5233,119.287 54.19,122.287 54.5,125.5C 48.1667,125.5 41.8333,125.5 35.5,125.5C 35.0183,97.4878 48.0183,78.9878 74.5,70C 89.456,68.6036 104.456,68.1036 119.5,68.5C 119.5,73.8333 119.5,79.1667 119.5,84.5C 108.828,84.3335 98.1615,84.5002 87.5,85C 69.0273,87.6397 58.3607,98.1397 55.5,116.5 Z"/></g>
<g><path style="opacity:1" fill="#121212" d="M 100.5,118.5 C 106.833,118.5 113.167,118.5 119.5,118.5C 118.963,149.254 103.63,167.587 73.5,173.5C 60.8571,174.442 48.1904,174.775 35.5,174.5C 35.5,168.833 35.5,163.167 35.5,157.5C 47.5046,157.667 59.5046,157.5 71.5,157C 91.1868,151.819 100.853,138.986 100.5,118.5 Z"/></g>
<g><path style="opacity:1" fill="#797979" d="M 55.5,116.5 C 55.5,119.833 55.5,123.167 55.5,126.5C 48.6457,126.824 41.979,126.491 35.5,125.5C 41.8333,125.5 48.1667,125.5 54.5,125.5C 54.19,122.287 54.5233,119.287 55.5,116.5 Z"/></g>
</svg>
