<?xml version="1.0" encoding="UTF-8"?>
<svg version="1.1" xmlns="http://www.w3.org/2000/svg" width="420" height="420">
<path d="M0 0 C138.6 0 277.2 0 420 0 C420 138.6 420 277.2 420 420 C281.4 420 142.8 420 0 420 C0 281.4 0 142.8 0 0 Z " fill="#F0F0F0" transform="translate(0,0)"/>
<path d="M0 0 C69.63 0 139.26 0 211 0 C211 23.1 211 46.2 211 70 C234.1 70 257.2 70 281 70 C281 93.43 281 116.86 281 141 C257.57 141 234.14 141 210 141 C210 117.9 210 94.8 210 71 C187.23 71 164.46 71 141 71 C141 94.1 141 117.2 141 141 C117.57 141 94.14 141 70 141 C70 117.9 70 94.8 70 71 C47.23 71 24.46 71 1 71 C1 94.1 1 117.2 1 141 C-22.43 141 -45.86 141 -70 141 C-70 117.57 -70 94.14 -70 70 C-46.9 70 -23.8 70 0 70 C0 46.9 0 23.8 0 0 Z " fill="#4BAED8" transform="translate(105,245)"/>
<path d="M0 0 C69.63 0 139.26 0 211 0 C211 23.1 211 46.2 211 70 C234.1 70 257.2 70 281 70 C281 93.43 281 116.86 281 141 C257.57 141 234.14 141 210 141 C210 117.9 210 94.8 210 71 C141.03 71 72.06 71 1 71 C1 94.1 1 117.2 1 141 C-22.43 141 -45.86 141 -70 141 C-70 117.57 -70 94.14 -70 70 C-46.9 70 -23.8 70 0 70 C0 46.9 0 23.8 0 0 Z " fill="#4BAED8" transform="translate(105,35)"/>
</svg>
