<?xml version="1.0" encoding="UTF-8"?>
<svg version="1.1" xmlns="http://www.w3.org/2000/svg" width="420" height="420">
<path d="M0 0 C138.6 0 277.2 0 420 0 C420 138.6 420 277.2 420 420 C281.4 420 142.8 420 0 420 C0 281.4 0 142.8 0 0 Z " fill="#F0F0F0" transform="translate(0,0)"/>
<path d="M0 0 C46.53 0 93.06 0 141 0 C141 46.2 141 92.4 141 140 C163.77 140 186.54 140 210 140 C210 93.8 210 47.6 210 0 C256.53 0 303.06 0 351 0 C351 46.53 351 93.06 351 141 C304.8 141 258.6 141 211 141 C211 163.77 211 186.54 211 210 C257.2 210 303.4 210 351 210 C351 233.43 351 256.86 351 281 C327.9 281 304.8 281 281 281 C281 304.1 281 327.2 281 351 C211.37 351 141.74 351 70 351 C70 327.9 70 304.8 70 281 C46.9 281 23.8 281 0 281 C0 257.57 0 234.14 0 210 C46.2 210 92.4 210 140 210 C140 187.23 140 164.46 140 141 C93.8 141 47.6 141 0 141 C0 94.47 0 47.94 0 0 Z " fill="#53D254" transform="translate(35,35)"/>
<path d="M0 0 C22.77 0 45.54 0 69 0 C69 22.77 69 45.54 69 69 C46.23 69 23.46 69 0 69 C0 46.23 0 23.46 0 0 Z " fill="#F0F0F0" transform="translate(176,246)"/>
</svg>
